<?xml version="1.0" encoding="UTF-8" standalone="no"?>
<!DOCTYPE svg PUBLIC "-//W3C//DTD SVG 1.1//EN"
 "http://www.w3.org/Graphics/SVG/1.1/DTD/svg11.dtd">
<!-- Generated by graphviz version 14.1.0 (0)
 -->
<!-- Title: G Pages: 1 -->
<svg width="707pt" height="389pt"
 viewBox="0.00 0.00 707.00 389.00" xmlns="http://www.w3.org/2000/svg" xmlns:xlink="http://www.w3.org/1999/xlink">
<g id="graph0" class="graph" transform="scale(0.544404 0.544404) rotate(0) translate(14.4 700.14)">
<title>G</title>
<!-- source -->
<g id="node1" class="node">
<title>source</title>
<path fill="#f2f2f2" stroke="#b8bcc4" stroke-width="1.5" d="M189.32,-562.76C189.32,-562.76 12,-562.76 12,-562.76 6,-562.76 0,-556.76 0,-550.76 0,-550.76 0,-503.24 0,-503.24 0,-497.24 6,-491.24 12,-491.24 12,-491.24 189.32,-491.24 189.32,-491.24 195.32,-491.24 201.32,-497.24 201.32,-503.24 201.32,-503.24 201.32,-550.76 201.32,-550.76 201.32,-556.76 195.32,-562.76 189.32,-562.76"/>
<text xml:space="preserve" text-anchor="middle" x="100.66" y="-533.6" font-family="Helvetica Neue" font-size="22.00" fill="#111111">Shared C# projects</text>
<text xml:space="preserve" text-anchor="middle" x="100.66" y="-507.2" font-family="Helvetica Neue" font-size="22.00" fill="#111111">+ ProGPU.Browser</text>
</g>
<!-- sdk -->
<g id="node2" class="node">
<title>sdk</title>
<path fill="#f2f2f2" stroke="#b8bcc4" stroke-width="1.5" d="M426.58,-562.76C426.58,-562.76 242.74,-562.76 242.74,-562.76 236.74,-562.76 230.74,-556.76 230.74,-550.76 230.74,-550.76 230.74,-503.24 230.74,-503.24 230.74,-497.24 236.74,-491.24 242.74,-491.24 242.74,-491.24 426.58,-491.24 426.58,-491.24 432.58,-491.24 438.58,-497.24 438.58,-503.24 438.58,-503.24 438.58,-550.76 438.58,-550.76 438.58,-556.76 432.58,-562.76 426.58,-562.76"/>
<text xml:space="preserve" text-anchor="middle" x="334.66" y="-533.6" font-family="Helvetica Neue" font-size="22.00" fill="#111111">WebAssembly SDK</text>
<text xml:space="preserve" text-anchor="middle" x="334.66" y="-507.2" font-family="Helvetica Neue" font-size="22.00" fill="#111111">browser&#45;wasm</text>
</g>
<!-- source&#45;&gt;sdk -->
<g id="edge1" class="edge">
<title>source&#45;&gt;sdk</title>
<path fill="none" stroke="#3d8dff" stroke-width="2.3" d="M201.93,-527C201.93,-527 218.28,-527 218.28,-527"/>
<polygon fill="#3d8dff" stroke="#3d8dff" stroke-width="2.3" points="218.28,-529.98 226.78,-527 218.28,-524.03 218.28,-529.98"/>
</g>
<!-- aot -->
<g id="node3" class="node">
<title>aot</title>
<path fill="#d0edfa" stroke="#3d8dff" stroke-width="1.5" d="M675.57,-575.96C675.57,-575.96 479.75,-575.96 479.75,-575.96 473.75,-575.96 467.75,-569.96 467.75,-563.96 467.75,-563.96 467.75,-490.04 467.75,-490.04 467.75,-484.04 473.75,-478.04 479.75,-478.04 479.75,-478.04 675.57,-478.04 675.57,-478.04 681.57,-478.04 687.57,-484.04 687.57,-490.04 687.57,-490.04 687.57,-563.96 687.57,-563.96 687.57,-569.96 681.57,-575.96 675.57,-575.96"/>
<text xml:space="preserve" text-anchor="middle" x="577.66" y="-546.8" font-family="Helvetica Neue" font-size="22.00" fill="#111111">Trim + AOT + SIMD</text>
<text xml:space="preserve" text-anchor="middle" x="577.66" y="-520.4" font-family="Helvetica Neue" font-size="22.00" fill="#111111">native relink</text>
<text xml:space="preserve" text-anchor="middle" x="577.66" y="-494" font-family="Helvetica Neue" font-size="22.00" fill="#111111">netDxf interpreted</text>
</g>
<!-- sdk&#45;&gt;aot -->
<g id="edge2" class="edge">
<title>sdk&#45;&gt;aot</title>
<path fill="none" stroke="#3d8dff" stroke-width="2.3" d="M439.12,-527C439.12,-527 455.11,-527 455.11,-527"/>
<polygon fill="#3d8dff" stroke="#3d8dff" stroke-width="2.3" points="455.11,-529.98 463.61,-527 455.11,-524.03 455.11,-529.98"/>
</g>
<!-- static -->
<g id="node4" class="node">
<title>static</title>
<path fill="#f2f2f2" stroke="#b8bcc4" stroke-width="1.5" d="M711.17,-151.76C711.17,-151.76 444.15,-151.76 444.15,-151.76 438.15,-151.76 432.15,-145.76 432.15,-139.76 432.15,-139.76 432.15,-92.24 432.15,-92.24 432.15,-86.24 438.15,-80.24 444.15,-80.24 444.15,-80.24 711.17,-80.24 711.17,-80.24 717.17,-80.24 723.17,-86.24 723.17,-92.24 723.17,-92.24 723.17,-139.76 723.17,-139.76 723.17,-145.76 717.17,-151.76 711.17,-151.76"/>
<text xml:space="preserve" text-anchor="middle" x="577.66" y="-122.6" font-family="Helvetica Neue" font-size="22.00" fill="#111111">wwwroot</text>
<text xml:space="preserve" text-anchor="middle" x="577.66" y="-96.2" font-family="Helvetica Neue" font-size="22.00" fill="#111111">WASM • JS • CSS • assets</text>
</g>
<!-- aot&#45;&gt;static -->
<g id="edge3" class="edge">
<title>aot&#45;&gt;static</title>
<path fill="none" stroke="#3d8dff" stroke-width="2.3" d="M577.66,-477.42C577.66,-477.42 577.66,-164.44 577.66,-164.44"/>
<polygon fill="#3d8dff" stroke="#3d8dff" stroke-width="2.3" points="580.63,-164.44 577.66,-155.94 574.68,-164.44 580.63,-164.44"/>
</g>
<!-- host -->
<g id="node5" class="node">
<title>host</title>
<path fill="#f2f2f2" stroke="#b8bcc4" stroke-width="1.5" d="M955.25,-151.76C955.25,-151.76 764.07,-151.76 764.07,-151.76 758.07,-151.76 752.07,-145.76 752.07,-139.76 752.07,-139.76 752.07,-92.24 752.07,-92.24 752.07,-86.24 758.07,-80.24 764.07,-80.24 764.07,-80.24 955.25,-80.24 955.25,-80.24 961.25,-80.24 967.25,-86.24 967.25,-92.24 967.25,-92.24 967.25,-139.76 967.25,-139.76 967.25,-145.76 961.25,-151.76 955.25,-151.76"/>
<text xml:space="preserve" text-anchor="middle" x="859.66" y="-122.6" font-family="Helvetica Neue" font-size="22.00" fill="#111111">Static HTTP(S) host</text>
<text xml:space="preserve" text-anchor="middle" x="859.66" y="-96.2" font-family="Helvetica Neue" font-size="22.00" fill="#111111">GitHub Pages / CDN</text>
</g>
<!-- static&#45;&gt;host -->
<g id="edge4" class="edge">
<title>static&#45;&gt;host</title>
<path fill="none" stroke="#3d8dff" stroke-width="2.3" d="M723.62,-116C723.62,-116 739.6,-116 739.6,-116"/>
<polygon fill="#3d8dff" stroke="#3d8dff" stroke-width="2.3" points="739.6,-118.98 748.1,-116 739.6,-113.03 739.6,-118.98"/>
</g>
<!-- runtime -->
<g id="node6" class="node">
<title>runtime</title>
<path fill="#d0edfa" stroke="#3d8dff" stroke-width="1.5" d="M1257.24,-151.76C1257.24,-151.76 1008.08,-151.76 1008.08,-151.76 1002.08,-151.76 996.08,-145.76 996.08,-139.76 996.08,-139.76 996.08,-92.24 996.08,-92.24 996.08,-86.24 1002.08,-80.24 1008.08,-80.24 1008.08,-80.24 1257.24,-80.24 1257.24,-80.24 1263.24,-80.24 1269.24,-86.24 1269.24,-92.24 1269.24,-92.24 1269.24,-139.76 1269.24,-139.76 1269.24,-145.76 1263.24,-151.76 1257.24,-151.76"/>
<text xml:space="preserve" text-anchor="middle" x="1132.66" y="-122.6" font-family="Helvetica Neue" font-size="22.00" fill="#111111">Browser startup</text>
<text xml:space="preserve" text-anchor="middle" x="1132.66" y="-96.2" font-family="Helvetica Neue" font-size="22.00" fill="#111111">identical IWebGpuApi path</text>
</g>
<!-- host&#45;&gt;runtime -->
<g id="edge5" class="edge">
<title>host&#45;&gt;runtime</title>
<path fill="none" stroke="#3d8dff" stroke-width="2.3" d="M967.95,-116C967.95,-116 983.56,-116 983.56,-116"/>
<polygon fill="#3d8dff" stroke="#3d8dff" stroke-width="2.3" points="983.56,-118.98 992.06,-116 983.56,-113.03 983.56,-118.98"/>
</g>
</g>
</svg>
