<?xml version="1.0" encoding="UTF-8" standalone="no"?>
<!DOCTYPE svg PUBLIC "-//W3C//DTD SVG 1.1//EN"
 "http://www.w3.org/Graphics/SVG/1.1/DTD/svg11.dtd">
<!-- Generated by graphviz version 14.1.0 (0)
 -->
<!-- Title: G Pages: 1 -->
<svg width="704pt" height="389pt"
 viewBox="0.00 0.00 704.00 389.00" xmlns="http://www.w3.org/2000/svg" xmlns:xlink="http://www.w3.org/1999/xlink">
<g id="graph0" class="graph" transform="scale(0.642271 0.642271) rotate(0) translate(14.4 591.26)">
<title>G</title>
<!-- app -->
<g id="node1" class="node">
<title>app</title>
<path fill="#f2f2f2" stroke="#b8bcc4" stroke-width="1.5" d="M115.16,-351.76C115.16,-351.76 12,-351.76 12,-351.76 6,-351.76 0,-345.76 0,-339.76 0,-339.76 0,-292.24 0,-292.24 0,-286.24 6,-280.24 12,-280.24 12,-280.24 115.16,-280.24 115.16,-280.24 121.16,-280.24 127.16,-286.24 127.16,-292.24 127.16,-292.24 127.16,-339.76 127.16,-339.76 127.16,-345.76 121.16,-351.76 115.16,-351.76"/>
<text xml:space="preserve" text-anchor="middle" x="63.58" y="-322.6" font-family="Helvetica Neue" font-size="22.00" fill="#111111">Shared app</text>
<text xml:space="preserve" text-anchor="middle" x="63.58" y="-296.2" font-family="Helvetica Neue" font-size="22.00" fill="#111111">+ controls</text>
</g>
<!-- scene -->
<g id="node2" class="node">
<title>scene</title>
<path fill="#f2f2f2" stroke="#b8bcc4" stroke-width="1.5" d="M414.33,-351.76C414.33,-351.76 190.82,-351.76 190.82,-351.76 184.82,-351.76 178.82,-345.76 178.82,-339.76 178.82,-339.76 178.82,-292.24 178.82,-292.24 178.82,-286.24 184.82,-280.24 190.82,-280.24 190.82,-280.24 414.33,-280.24 414.33,-280.24 420.33,-280.24 426.33,-286.24 426.33,-292.24 426.33,-292.24 426.33,-339.76 426.33,-339.76 426.33,-345.76 420.33,-351.76 414.33,-351.76"/>
<text xml:space="preserve" text-anchor="middle" x="302.58" y="-322.6" font-family="Helvetica Neue" font-size="22.00" fill="#111111">Retained scene</text>
<text xml:space="preserve" text-anchor="middle" x="302.58" y="-296.2" font-family="Helvetica Neue" font-size="22.00" fill="#111111">text • vector • compute</text>
</g>
<!-- app&#45;&gt;scene -->
<g id="edge1" class="edge">
<title>app&#45;&gt;scene</title>
<path fill="none" stroke="#3d8dff" stroke-width="2.3" d="M127.63,-316C127.63,-316 166.38,-316 166.38,-316"/>
<polygon fill="#3d8dff" stroke="#3d8dff" stroke-width="2.3" points="166.38,-318.98 174.88,-316 166.38,-313.03 166.38,-318.98"/>
</g>
<!-- api -->
<g id="node3" class="node">
<title>api</title>
<path fill="#d0edfa" stroke="#3d8dff" stroke-width="1.5" d="M645.43,-351.76C645.43,-351.76 489.72,-351.76 489.72,-351.76 483.72,-351.76 477.72,-345.76 477.72,-339.76 477.72,-339.76 477.72,-292.24 477.72,-292.24 477.72,-286.24 483.72,-280.24 489.72,-280.24 489.72,-280.24 645.43,-280.24 645.43,-280.24 651.43,-280.24 657.43,-286.24 657.43,-292.24 657.43,-292.24 657.43,-339.76 657.43,-339.76 657.43,-345.76 651.43,-351.76 645.43,-351.76"/>
<text xml:space="preserve" text-anchor="middle" x="567.58" y="-322.6" font-family="Helvetica Neue" font-size="22.00" fill="#111111">IWebGpuApi</text>
<text xml:space="preserve" text-anchor="middle" x="567.58" y="-296.2" font-family="Helvetica Neue" font-size="22.00" fill="#111111">typed descriptors</text>
</g>
<!-- scene&#45;&gt;api -->
<g id="edge2" class="edge">
<title>scene&#45;&gt;api</title>
<path fill="none" stroke="#3d8dff" stroke-width="2.3" d="M426.93,-316C426.93,-316 465.2,-316 465.2,-316"/>
<polygon fill="#3d8dff" stroke="#3d8dff" stroke-width="2.3" points="465.2,-318.98 473.7,-316 465.2,-313.03 465.2,-318.98"/>
</g>
<!-- serializer -->
<g id="node4" class="node">
<title>serializer</title>
<path fill="#f2f2f2" stroke="#b8bcc4" stroke-width="1.5" d="M290.46,-109.76C290.46,-109.76 98.7,-109.76 98.7,-109.76 92.7,-109.76 86.7,-103.76 86.7,-97.76 86.7,-97.76 86.7,-50.24 86.7,-50.24 86.7,-44.24 92.7,-38.24 98.7,-38.24 98.7,-38.24 290.46,-38.24 290.46,-38.24 296.46,-38.24 302.46,-44.24 302.46,-50.24 302.46,-50.24 302.46,-97.76 302.46,-97.76 302.46,-103.76 296.46,-109.76 290.46,-109.76"/>
<text xml:space="preserve" text-anchor="middle" x="194.58" y="-80.6" font-family="Helvetica Neue" font-size="22.00" fill="#111111">BrowserWebGpuApi</text>
<text xml:space="preserve" text-anchor="middle" x="194.58" y="-54.2" font-family="Helvetica Neue" font-size="22.00" fill="#111111">serialize</text>
</g>
<!-- api&#45;&gt;serializer -->
<g id="edge3" class="edge">
<title>api&#45;&gt;serializer</title>
<path fill="none" stroke="#3d8dff" stroke-width="2.3" d="M489.64,-279.7C489.64,-244.05 489.64,-195 489.64,-195 489.64,-195 240.64,-195 240.64,-195 240.64,-195 240.64,-122.29 240.64,-122.29"/>
<polygon fill="#3d8dff" stroke="#3d8dff" stroke-width="2.3" points="243.61,-122.29 240.64,-113.79 237.66,-122.29 243.61,-122.29"/>
</g>
<!-- packet -->
<g id="node5" class="node">
<title>packet</title>
<path fill="#d0edfa" stroke="#3d8dff" stroke-width="1.5" d="M489.55,-109.76C489.55,-109.76 365.6,-109.76 365.6,-109.76 359.6,-109.76 353.6,-103.76 353.6,-97.76 353.6,-97.76 353.6,-50.24 353.6,-50.24 353.6,-44.24 359.6,-38.24 365.6,-38.24 365.6,-38.24 489.55,-38.24 489.55,-38.24 495.55,-38.24 501.55,-44.24 501.55,-50.24 501.55,-50.24 501.55,-97.76 501.55,-97.76 501.55,-103.76 495.55,-109.76 489.55,-109.76"/>
<text xml:space="preserve" text-anchor="middle" x="427.58" y="-80.6" font-family="Helvetica Neue" font-size="22.00" fill="#111111">PGPU packet</text>
<text xml:space="preserve" text-anchor="middle" x="427.58" y="-54.2" font-family="Helvetica Neue" font-size="22.00" fill="#111111">LE • aligned</text>
</g>
<!-- serializer&#45;&gt;packet -->
<g id="edge4" class="edge">
<title>serializer&#45;&gt;packet</title>
<path fill="none" stroke="#3d8dff" stroke-width="2.3" d="M302.89,-74C302.89,-74 341.14,-74 341.14,-74"/>
<polygon fill="#3d8dff" stroke="#3d8dff" stroke-width="2.3" points="341.14,-76.98 349.64,-74 341.14,-71.03 341.14,-76.98"/>
</g>
<!-- decoder -->
<g id="node6" class="node">
<title>decoder</title>
<path fill="#f2f2f2" stroke="#b8bcc4" stroke-width="1.5" d="M736.36,-109.76C736.36,-109.76 564.8,-109.76 564.8,-109.76 558.8,-109.76 552.8,-103.76 552.8,-97.76 552.8,-97.76 552.8,-50.24 552.8,-50.24 552.8,-44.24 558.8,-38.24 564.8,-38.24 564.8,-38.24 736.36,-38.24 736.36,-38.24 742.36,-38.24 748.36,-44.24 748.36,-50.24 748.36,-50.24 748.36,-97.76 748.36,-97.76 748.36,-103.76 742.36,-109.76 736.36,-109.76"/>
<text xml:space="preserve" text-anchor="middle" x="650.58" y="-80.6" font-family="Helvetica Neue" font-size="22.00" fill="#111111">JavaScript decoder</text>
<text xml:space="preserve" text-anchor="middle" x="650.58" y="-54.2" font-family="Helvetica Neue" font-size="22.00" fill="#111111">resolve handles</text>
</g>
<!-- packet&#45;&gt;decoder -->
<g id="edge5" class="edge">
<title>packet&#45;&gt;decoder</title>
<path fill="none" stroke="#3d8dff" stroke-width="2.3" d="M502.14,-74C502.14,-74 540.31,-74 540.31,-74"/>
<polygon fill="#3d8dff" stroke="#3d8dff" stroke-width="2.3" points="540.31,-76.98 548.81,-74 540.31,-71.03 540.31,-76.98"/>
</g>
<!-- gpu -->
<g id="node7" class="node">
<title>gpu</title>
<path fill="#d0edfa" stroke="#3d8dff" stroke-width="1.5" d="M1055.72,-109.76C1055.72,-109.76 811.44,-109.76 811.44,-109.76 805.44,-109.76 799.44,-103.76 799.44,-97.76 799.44,-97.76 799.44,-50.24 799.44,-50.24 799.44,-44.24 805.44,-38.24 811.44,-38.24 811.44,-38.24 1055.72,-38.24 1055.72,-38.24 1061.72,-38.24 1067.72,-44.24 1067.72,-50.24 1067.72,-50.24 1067.72,-97.76 1067.72,-97.76 1067.72,-103.76 1061.72,-109.76 1055.72,-109.76"/>
<text xml:space="preserve" text-anchor="middle" x="933.58" y="-80.6" font-family="Helvetica Neue" font-size="22.00" fill="#111111">navigator.gpu</text>
<text xml:space="preserve" text-anchor="middle" x="933.58" y="-54.2" font-family="Helvetica Neue" font-size="22.00" fill="#111111">Device • Queue • Canvas</text>
</g>
<!-- decoder&#45;&gt;gpu -->
<g id="edge6" class="edge">
<title>decoder&#45;&gt;gpu</title>
<path fill="none" stroke="#3d8dff" stroke-width="2.3" d="M748.76,-74C748.76,-74 787.19,-74 787.19,-74"/>
<polygon fill="#3d8dff" stroke="#3d8dff" stroke-width="2.3" points="787.19,-76.98 795.69,-74 787.19,-71.03 787.19,-76.98"/>
</g>
<!-- wgsl -->
<g id="node8" class="node">
<title>wgsl</title>
<polygon fill="#ffffff" stroke="#3d8dff" stroke-width="1.5" points="743.93,-552.56 559.22,-552.56 559.22,-507.44 749.93,-507.44 749.93,-546.56 743.93,-552.56"/>
<polyline fill="none" stroke="#3d8dff" stroke-width="1.5" points="743.93,-552.56 743.93,-546.56"/>
<polyline fill="none" stroke="#3d8dff" stroke-width="1.5" points="749.93,-546.56 743.93,-546.56"/>
<text xml:space="preserve" text-anchor="middle" x="654.58" y="-523.4" font-family="Helvetica Neue" font-size="22.00" fill="#3d8dff">Embedded WGSL</text>
</g>
<!-- wgsl&#45;&gt;scene -->
<g id="edge7" class="edge">
<title>wgsl&#45;&gt;scene</title>
<path fill="none" stroke="#3d8dff" stroke-width="2.3" stroke-dasharray="5,2" d="M558.86,-530C454.62,-530 302.58,-530 302.58,-530 302.58,-530 302.58,-364.28 302.58,-364.28"/>
<polygon fill="#3d8dff" stroke="#3d8dff" stroke-width="2.3" points="305.55,-364.28 302.58,-355.78 299.6,-364.28 305.55,-364.28"/>
</g>
<!-- wgsl&#45;&gt;gpu -->
<g id="edge8" class="edge">
<title>wgsl&#45;&gt;gpu</title>
<path fill="none" stroke="#3d8dff" stroke-width="2.3" stroke-dasharray="5,2" d="M750.59,-530C831.3,-530 933.58,-530 933.58,-530 933.58,-530 933.58,-122.14 933.58,-122.14"/>
<polygon fill="#3d8dff" stroke="#3d8dff" stroke-width="2.3" points="936.55,-122.14 933.58,-113.64 930.6,-122.14 936.55,-122.14"/>
<text xml:space="preserve" text-anchor="middle" x="920.66" y="-310.9" font-family="Helvetica Neue" font-size="17.00" fill="#5e697a">unchanged UTF&#45;8</text>
</g>
</g>
</svg>
