<?xml version="1.0" encoding="UTF-8" standalone="no"?>
<!DOCTYPE svg PUBLIC "-//W3C//DTD SVG 1.1//EN"
 "http://www.w3.org/Graphics/SVG/1.1/DTD/svg11.dtd">
<!-- Generated by graphviz version 14.1.0 (0)
 -->
<!-- Title: G Pages: 1 -->
<svg width="704pt" height="389pt"
 viewBox="0.00 0.00 704.00 389.00" xmlns="http://www.w3.org/2000/svg" xmlns:xlink="http://www.w3.org/1999/xlink">
<g id="graph0" class="graph" transform="scale(0.66098 0.66098) rotate(0) translate(14.4 574.12)">
<title>G</title>
<!-- mutation -->
<g id="node1" class="node">
<title>mutation</title>
<path fill="#f2f2f2" stroke="#b8bcc4" stroke-width="1.5" d="M436.78,-559.76C436.78,-559.76 165.01,-559.76 165.01,-559.76 159.01,-559.76 153.01,-553.76 153.01,-547.76 153.01,-547.76 153.01,-500.24 153.01,-500.24 153.01,-494.24 159.01,-488.24 165.01,-488.24 165.01,-488.24 436.78,-488.24 436.78,-488.24 442.78,-488.24 448.78,-494.24 448.78,-500.24 448.78,-500.24 448.78,-547.76 448.78,-547.76 448.78,-553.76 442.78,-559.76 436.78,-559.76"/>
<text xml:space="preserve" text-anchor="middle" x="300.89" y="-530.6" font-family="Helvetica Neue" font-size="22.00" fill="#111111">Visual mutation</text>
<text xml:space="preserve" text-anchor="middle" x="300.89" y="-504.2" font-family="Helvetica Neue" font-size="22.00" fill="#111111">Invalidate() → ChangeVersion</text>
</g>
<!-- frame -->
<g id="node2" class="node">
<title>frame</title>
<path fill="#d0edfa" stroke="#3d8dff" stroke-width="1.5" d="M415.17,-446.76C415.17,-446.76 186.62,-446.76 186.62,-446.76 180.62,-446.76 174.62,-440.76 174.62,-434.76 174.62,-434.76 174.62,-387.24 174.62,-387.24 174.62,-381.24 180.62,-375.24 186.62,-375.24 186.62,-375.24 415.17,-375.24 415.17,-375.24 421.17,-375.24 427.17,-381.24 427.17,-387.24 427.17,-387.24 427.17,-434.76 427.17,-434.76 427.17,-440.76 421.17,-446.76 415.17,-446.76"/>
<text xml:space="preserve" text-anchor="middle" x="300.89" y="-417.6" font-family="Helvetica Neue" font-size="22.00" fill="#111111">RenderSceneCore</text>
<text xml:space="preserve" text-anchor="middle" x="300.89" y="-391.2" font-family="Helvetica Neue" font-size="22.00" fill="#111111">collect target + atlas state</text>
</g>
<!-- mutation&#45;&gt;frame -->
<g id="edge1" class="edge">
<title>mutation&#45;&gt;frame</title>
<path fill="none" stroke="#3d8dff" stroke-width="2.3" d="M300.89,-487.62C300.89,-487.62 300.89,-459.29 300.89,-459.29"/>
<polygon fill="#3d8dff" stroke="#3d8dff" stroke-width="2.3" points="303.87,-459.29 300.89,-450.79 297.92,-459.29 303.87,-459.29"/>
</g>
<!-- predicate -->
<g id="node3" class="node">
<title>predicate</title>
<path fill="#ffffff" stroke="#3d8dff" stroke-width="1.5" d="M289.06,-333.12C289.06,-333.12 45.65,-292 45.65,-292 39.74,-291 39.74,-289 45.65,-288 45.65,-288 289.06,-246.88 289.06,-246.88 294.98,-245.88 306.81,-245.88 312.72,-246.88 312.72,-246.88 556.13,-288 556.13,-288 562.05,-289 562.05,-291 556.13,-292 556.13,-292 312.72,-333.12 312.72,-333.12 306.81,-334.12 294.98,-334.12 289.06,-333.12"/>
<text xml:space="preserve" text-anchor="middle" x="300.89" y="-283.4" font-family="Helvetica Neue" font-size="22.00" fill="#111111">CanReuseCompiledScene?</text>
</g>
<!-- frame&#45;&gt;predicate -->
<g id="edge2" class="edge">
<title>frame&#45;&gt;predicate</title>
<path fill="none" stroke="#3d8dff" stroke-width="2.3" d="M300.89,-374.7C300.89,-374.7 300.89,-347.7 300.89,-347.7"/>
<polygon fill="#3d8dff" stroke="#3d8dff" stroke-width="2.3" points="303.87,-347.7 300.89,-339.2 297.92,-347.7 303.87,-347.7"/>
</g>
<!-- replay -->
<g id="node4" class="node">
<title>replay</title>
<path fill="#f2f2f2" stroke="#b8bcc4" stroke-width="1.5" d="M276.14,-183.76C276.14,-183.76 19.65,-183.76 19.65,-183.76 13.65,-183.76 7.65,-177.76 7.65,-171.76 7.65,-171.76 7.65,-124.24 7.65,-124.24 7.65,-118.24 13.65,-112.24 19.65,-112.24 19.65,-112.24 276.14,-112.24 276.14,-112.24 282.14,-112.24 288.14,-118.24 288.14,-124.24 288.14,-124.24 288.14,-171.76 288.14,-171.76 288.14,-177.76 282.14,-183.76 276.14,-183.76"/>
<text xml:space="preserve" text-anchor="middle" x="147.89" y="-154.6" font-family="Helvetica Neue" font-size="22.00" fill="#111111">Replay retained</text>
<text xml:space="preserve" text-anchor="middle" x="147.89" y="-128.2" font-family="Helvetica Neue" font-size="22.00" fill="#111111">vertices • indices • batches</text>
</g>
<!-- predicate&#45;&gt;replay -->
<g id="edge3" class="edge">
<title>predicate&#45;&gt;replay</title>
<path fill="none" stroke="#3d8dff" stroke-width="2.3" d="M160.98,-267.81C160.98,-267.81 160.98,-196.37 160.98,-196.37"/>
<polygon fill="#3d8dff" stroke="#3d8dff" stroke-width="2.3" points="163.95,-196.37 160.98,-187.87 158,-196.37 163.95,-196.37"/>
<text xml:space="preserve" text-anchor="middle" x="282.47" y="-208.9" font-family="Helvetica Neue" font-size="17.00" fill="#5e697a"> yes </text>
</g>
<!-- compile -->
<g id="node5" class="node">
<title>compile</title>
<path fill="#f2f2f2" stroke="#b8bcc4" stroke-width="1.5" d="M563.76,-183.76C563.76,-183.76 346.03,-183.76 346.03,-183.76 340.03,-183.76 334.03,-177.76 334.03,-171.76 334.03,-171.76 334.03,-124.24 334.03,-124.24 334.03,-118.24 340.03,-112.24 346.03,-112.24 346.03,-112.24 563.76,-112.24 563.76,-112.24 569.76,-112.24 575.76,-118.24 575.76,-124.24 575.76,-124.24 575.76,-171.76 575.76,-171.76 575.76,-177.76 569.76,-183.76 563.76,-183.76"/>
<text xml:space="preserve" text-anchor="middle" x="454.89" y="-154.6" font-family="Helvetica Neue" font-size="22.00" fill="#111111">Compile dirty scene</text>
<text xml:space="preserve" text-anchor="middle" x="454.89" y="-128.2" font-family="Helvetica Neue" font-size="22.00" fill="#111111">record + upload + cache</text>
</g>
<!-- predicate&#45;&gt;compile -->
<g id="edge4" class="edge">
<title>predicate&#45;&gt;compile</title>
<path fill="none" stroke="#3d8dff" stroke-width="2.3" d="M451,-269.65C451,-269.65 451,-196.22 451,-196.22"/>
<polygon fill="#3d8dff" stroke="#3d8dff" stroke-width="2.3" points="453.97,-196.22 451,-187.72 448.02,-196.22 453.97,-196.22"/>
<text xml:space="preserve" text-anchor="middle" x="407.64" y="-208.9" font-family="Helvetica Neue" font-size="17.00" fill="#5e697a"> no </text>
</g>
<!-- execute -->
<g id="node6" class="node">
<title>execute</title>
<path fill="#d0edfa" stroke="#3d8dff" stroke-width="1.5" d="M391.25,-71.76C391.25,-71.76 210.54,-71.76 210.54,-71.76 204.54,-71.76 198.54,-65.76 198.54,-59.76 198.54,-59.76 198.54,-12.24 198.54,-12.24 198.54,-6.24 204.54,-0.24 210.54,-0.24 210.54,-0.24 391.25,-0.24 391.25,-0.24 397.25,-0.24 403.25,-6.24 403.25,-12.24 403.25,-12.24 403.25,-59.76 403.25,-59.76 403.25,-65.76 397.25,-71.76 391.25,-71.76"/>
<text xml:space="preserve" text-anchor="middle" x="300.89" y="-42.6" font-family="Helvetica Neue" font-size="22.00" fill="#111111">Execute render pass</text>
<text xml:space="preserve" text-anchor="middle" x="300.89" y="-16.2" font-family="Helvetica Neue" font-size="22.00" fill="#111111">current target view</text>
</g>
<!-- replay&#45;&gt;execute -->
<g id="edge5" class="edge">
<title>replay&#45;&gt;execute</title>
<path fill="none" stroke="#3d8dff" stroke-width="2.3" d="M243.34,-111.64C243.34,-111.64 243.34,-84.16 243.34,-84.16"/>
<polygon fill="#3d8dff" stroke="#3d8dff" stroke-width="2.3" points="246.31,-84.16 243.34,-75.66 240.36,-84.16 246.31,-84.16"/>
</g>
<!-- compile&#45;&gt;execute -->
<g id="edge6" class="edge">
<title>compile&#45;&gt;execute</title>
<path fill="none" stroke="#3d8dff" stroke-width="2.3" d="M368.64,-111.64C368.64,-111.64 368.64,-84.16 368.64,-84.16"/>
<polygon fill="#3d8dff" stroke="#3d8dff" stroke-width="2.3" points="371.61,-84.16 368.64,-75.66 365.66,-84.16 371.61,-84.16"/>
</g>
<!-- retry -->
<g id="node7" class="node">
<title>retry</title>
<path fill="#f2f2f2" stroke="#b8bcc4" stroke-width="1.5" d="M1014.36,-183.76C1014.36,-183.76 695.43,-183.76 695.43,-183.76 689.43,-183.76 683.43,-177.76 683.43,-171.76 683.43,-171.76 683.43,-124.24 683.43,-124.24 683.43,-118.24 689.43,-112.24 695.43,-112.24 695.43,-112.24 1014.36,-112.24 1014.36,-112.24 1020.36,-112.24 1026.36,-118.24 1026.36,-124.24 1026.36,-124.24 1026.36,-171.76 1026.36,-171.76 1026.36,-177.76 1020.36,-183.76 1014.36,-183.76"/>
<text xml:space="preserve" text-anchor="middle" x="854.89" y="-154.6" font-family="Helvetica Neue" font-size="22.00" fill="#111111">PathAtlas full?</text>
<text xml:space="preserve" text-anchor="middle" x="854.89" y="-128.2" font-family="Helvetica Neue" font-size="22.00" fill="#111111">reset generation + same&#45;frame retry</text>
</g>
<!-- compile&#45;&gt;retry -->
<g id="edge7" class="edge">
<title>compile&#45;&gt;retry</title>
<path fill="none" stroke="#3d8dff" stroke-width="2.3" stroke-dasharray="5,2" d="M576.26,-160C576.26,-160 670.79,-160 670.79,-160"/>
<polygon fill="#3d8dff" stroke="#3d8dff" stroke-width="2.3" points="670.79,-162.98 679.29,-160 670.79,-157.03 670.79,-162.98"/>
</g>
<!-- retry&#45;&gt;compile -->
<g id="edge8" class="edge">
<title>retry&#45;&gt;compile</title>
<path fill="none" stroke="#3d8dff" stroke-width="2.3" stroke-dasharray="5,2" d="M682.94,-136C682.94,-136 588.3,-136 588.3,-136"/>
<polygon fill="#3d8dff" stroke="#3d8dff" stroke-width="2.3" points="588.3,-133.03 579.8,-136 588.3,-138.98 588.3,-133.03"/>
</g>
</g>
</svg>
