<?xml version="1.0" encoding="UTF-8" standalone="no"?>
<!DOCTYPE svg PUBLIC "-//W3C//DTD SVG 1.1//EN"
 "http://www.w3.org/Graphics/SVG/1.1/DTD/svg11.dtd">
<!-- Generated by graphviz version 14.1.0 (0)
 -->
<!-- Title: G Pages: 1 -->
<svg width="700pt" height="389pt"
 viewBox="0.00 0.00 700.00 389.00" xmlns="http://www.w3.org/2000/svg" xmlns:xlink="http://www.w3.org/1999/xlink">
<g id="graph0" class="graph" transform="scale(0.835149 0.835149) rotate(0) translate(14.4 451.39)">
<title>G</title>
<!-- auto -->
<g id="node1" class="node">
<title>auto</title>
<path fill="#d0edfa" stroke="#3d8dff" stroke-width="1.5" d="M462.81,-427.56C462.81,-427.56 267.99,-427.56 267.99,-427.56 261.99,-427.56 255.99,-421.56 255.99,-415.56 255.99,-415.56 255.99,-394.44 255.99,-394.44 255.99,-388.44 261.99,-382.44 267.99,-382.44 267.99,-382.44 462.81,-382.44 462.81,-382.44 468.81,-382.44 474.81,-388.44 474.81,-394.44 474.81,-394.44 474.81,-415.56 474.81,-415.56 474.81,-421.56 468.81,-427.56 462.81,-427.56"/>
<text xml:space="preserve" text-anchor="middle" x="365.4" y="-398.4" font-family="Helvetica Neue" font-size="22.00" fill="#111111">ExecutionMode.Auto</text>
</g>
<!-- iso -->
<g id="node2" class="node">
<title>iso</title>
<path fill="#f2f2f2" stroke="#b8bcc4" stroke-width="1.5" d="M234.42,-272.76C234.42,-272.76 42.38,-272.76 42.38,-272.76 36.38,-272.76 30.38,-266.76 30.38,-260.76 30.38,-260.76 30.38,-213.24 30.38,-213.24 30.38,-207.24 36.38,-201.24 42.38,-201.24 42.38,-201.24 234.42,-201.24 234.42,-201.24 240.42,-201.24 246.42,-207.24 246.42,-213.24 246.42,-213.24 246.42,-260.76 246.42,-260.76 246.42,-266.76 240.42,-272.76 234.42,-272.76"/>
<text xml:space="preserve" text-anchor="middle" x="138.4" y="-243.6" font-family="Helvetica Neue" font-size="22.00" fill="#111111">IsolatedWorker</text>
<text xml:space="preserve" text-anchor="middle" x="138.4" y="-217.2" font-family="Helvetica Neue" font-size="22.00" fill="#111111">COOP/COEP + SAB</text>
</g>
<!-- auto&#45;&gt;iso -->
<g id="edge1" class="edge">
<title>auto&#45;&gt;iso</title>
<path fill="none" stroke="#3d8dff" stroke-width="2.3" d="M262.41,-381.98C262.41,-338.59 262.41,-249 262.41,-249 262.41,-249 258.94,-249 258.94,-249"/>
<polygon fill="#3d8dff" stroke="#3d8dff" stroke-width="2.3" points="258.94,-246.03 250.44,-249 258.94,-251.98 258.94,-246.03"/>
<text xml:space="preserve" text-anchor="middle" x="234.84" y="-324.9" font-family="Helvetica Neue" font-size="17.00" fill="#5e697a">isolated</text>
</g>
<!-- worker -->
<g id="node3" class="node">
<title>worker</title>
<path fill="#f2f2f2" stroke="#b8bcc4" stroke-width="1.5" d="M443.54,-272.76C443.54,-272.76 287.25,-272.76 287.25,-272.76 281.25,-272.76 275.25,-266.76 275.25,-260.76 275.25,-260.76 275.25,-213.24 275.25,-213.24 275.25,-207.24 281.25,-201.24 287.25,-201.24 287.25,-201.24 443.54,-201.24 443.54,-201.24 449.54,-201.24 455.54,-207.24 455.54,-213.24 455.54,-213.24 455.54,-260.76 455.54,-260.76 455.54,-266.76 449.54,-272.76 443.54,-272.76"/>
<text xml:space="preserve" text-anchor="middle" x="365.4" y="-243.6" font-family="Helvetica Neue" font-size="22.00" fill="#111111">Worker</text>
<text xml:space="preserve" text-anchor="middle" x="365.4" y="-217.2" font-family="Helvetica Neue" font-size="22.00" fill="#111111">OffscreenCanvas</text>
</g>
<!-- auto&#45;&gt;worker -->
<g id="edge2" class="edge">
<title>auto&#45;&gt;worker</title>
<path fill="none" stroke="#3d8dff" stroke-width="2.3" d="M365.4,-381.99C365.4,-381.99 365.4,-285.23 365.4,-285.23"/>
<polygon fill="#3d8dff" stroke="#3d8dff" stroke-width="2.3" points="368.37,-285.23 365.4,-276.73 362.42,-285.23 368.37,-285.23"/>
<text xml:space="preserve" text-anchor="middle" x="397.01" y="-324.9" font-family="Helvetica Neue" font-size="17.00" fill="#5e697a">offscreen</text>
</g>
<!-- main -->
<g id="node4" class="node">
<title>main</title>
<path fill="#f2f2f2" stroke="#b8bcc4" stroke-width="1.5" d="M747.99,-272.76C747.99,-272.76 542.8,-272.76 542.8,-272.76 536.8,-272.76 530.8,-266.76 530.8,-260.76 530.8,-260.76 530.8,-213.24 530.8,-213.24 530.8,-207.24 536.8,-201.24 542.8,-201.24 542.8,-201.24 747.99,-201.24 747.99,-201.24 753.99,-201.24 759.99,-207.24 759.99,-213.24 759.99,-213.24 759.99,-260.76 759.99,-260.76 759.99,-266.76 753.99,-272.76 747.99,-272.76"/>
<text xml:space="preserve" text-anchor="middle" x="645.4" y="-243.6" font-family="Helvetica Neue" font-size="22.00" fill="#111111">MainThread</text>
<text xml:space="preserve" text-anchor="middle" x="645.4" y="-217.2" font-family="Helvetica Neue" font-size="22.00" fill="#111111">HTMLCanvasElement</text>
</g>
<!-- auto&#45;&gt;main -->
<g id="edge3" class="edge">
<title>auto&#45;&gt;main</title>
<path fill="none" stroke="#3d8dff" stroke-width="2.3" d="M465.17,-381.99C465.17,-335.98 465.17,-237 465.17,-237 465.17,-237 518.26,-237 518.26,-237"/>
<polygon fill="#3d8dff" stroke="#3d8dff" stroke-width="2.3" points="518.26,-239.98 526.76,-237 518.26,-234.03 518.26,-239.98"/>
<text xml:space="preserve" text-anchor="middle" x="557.77" y="-324.9" font-family="Helvetica Neue" font-size="17.00" fill="#5e697a">fallback</text>
</g>
<!-- batch -->
<g id="node5" class="node">
<title>batch</title>
<path fill="#d0edfa" stroke="#3d8dff" stroke-width="1.5" d="M264.79,-86.76C264.79,-86.76 12,-86.76 12,-86.76 6,-86.76 0,-80.76 0,-74.76 0,-74.76 0,-27.24 0,-27.24 0,-21.24 6,-15.24 12,-15.24 12,-15.24 264.79,-15.24 264.79,-15.24 270.79,-15.24 276.79,-21.24 276.79,-27.24 276.79,-27.24 276.79,-74.76 276.79,-74.76 276.79,-80.76 270.79,-86.76 264.79,-86.76"/>
<text xml:space="preserve" text-anchor="middle" x="138.4" y="-57.6" font-family="Helvetica Neue" font-size="22.00" fill="#111111">Frame packet batch</text>
<text xml:space="preserve" text-anchor="middle" x="138.4" y="-31.2" font-family="Helvetica Neue" font-size="22.00" fill="#111111">one task per managed frame</text>
</g>
<!-- iso&#45;&gt;batch -->
<g id="edge4" class="edge">
<title>iso&#45;&gt;batch</title>
<path fill="none" stroke="#3d8dff" stroke-width="2.3" d="M138.4,-200.7C138.4,-200.7 138.4,-99.19 138.4,-99.19"/>
<polygon fill="#3d8dff" stroke="#3d8dff" stroke-width="2.3" points="141.37,-99.19 138.4,-90.69 135.42,-99.19 141.37,-99.19"/>
</g>
<!-- worker&#45;&gt;batch -->
<g id="edge5" class="edge">
<title>worker&#45;&gt;batch</title>
<path fill="none" stroke="#3d8dff" stroke-width="2.3" d="M274.58,-225C270.96,-225 268.83,-225 268.83,-225 268.83,-225 268.83,-99.46 268.83,-99.46"/>
<polygon fill="#3d8dff" stroke="#3d8dff" stroke-width="2.3" points="271.81,-99.46 268.83,-90.96 265.86,-99.46 271.81,-99.46"/>
</g>
<!-- gpu -->
<g id="node7" class="node">
<title>gpu</title>
<path fill="#f2f2f2" stroke="#b8bcc4" stroke-width="1.5" d="M796.82,-86.76C796.82,-86.76 587.98,-86.76 587.98,-86.76 581.98,-86.76 575.98,-80.76 575.98,-74.76 575.98,-74.76 575.98,-27.24 575.98,-27.24 575.98,-21.24 581.98,-15.24 587.98,-15.24 587.98,-15.24 796.82,-15.24 796.82,-15.24 802.82,-15.24 808.82,-21.24 808.82,-27.24 808.82,-27.24 808.82,-74.76 808.82,-74.76 808.82,-80.76 802.82,-86.76 796.82,-86.76"/>
<text xml:space="preserve" text-anchor="middle" x="692.4" y="-57.6" font-family="Helvetica Neue" font-size="22.00" fill="#111111">One GPUDevice</text>
<text xml:space="preserve" text-anchor="middle" x="692.4" y="-31.2" font-family="Helvetica Neue" font-size="22.00" fill="#111111">ordered WebGPU calls</text>
</g>
<!-- main&#45;&gt;gpu -->
<g id="edge8" class="edge">
<title>main&#45;&gt;gpu</title>
<path fill="none" stroke="#3d8dff" stroke-width="2.3" d="M667.99,-200.7C667.99,-200.7 667.99,-99.19 667.99,-99.19"/>
<polygon fill="#3d8dff" stroke="#3d8dff" stroke-width="2.3" points="670.96,-99.19 667.99,-90.69 665.01,-99.19 670.96,-99.19"/>
<text xml:space="preserve" text-anchor="middle" x="713.94" y="-138.9" font-family="Helvetica Neue" font-size="17.00" fill="#5e697a">direct decode</text>
</g>
<!-- serial -->
<g id="node6" class="node">
<title>serial</title>
<path fill="#f2f2f2" stroke="#b8bcc4" stroke-width="1.5" d="M506.68,-86.76C506.68,-86.76 346.12,-86.76 346.12,-86.76 340.12,-86.76 334.12,-80.76 334.12,-74.76 334.12,-74.76 334.12,-27.24 334.12,-27.24 334.12,-21.24 340.12,-15.24 346.12,-15.24 346.12,-15.24 506.68,-15.24 506.68,-15.24 512.68,-15.24 518.68,-21.24 518.68,-27.24 518.68,-27.24 518.68,-74.76 518.68,-74.76 518.68,-80.76 512.68,-86.76 506.68,-86.76"/>
<text xml:space="preserve" text-anchor="middle" x="426.4" y="-57.6" font-family="Helvetica Neue" font-size="22.00" fill="#111111">Serialized worker</text>
<text xml:space="preserve" text-anchor="middle" x="426.4" y="-31.2" font-family="Helvetica Neue" font-size="22.00" fill="#111111">messageChain</text>
</g>
<!-- batch&#45;&gt;serial -->
<g id="edge6" class="edge">
<title>batch&#45;&gt;serial</title>
<path fill="none" stroke="#3d8dff" stroke-width="2.3" d="M277.34,-51C277.34,-51 321.75,-51 321.75,-51"/>
<polygon fill="#3d8dff" stroke="#3d8dff" stroke-width="2.3" points="321.75,-53.98 330.25,-51 321.75,-48.03 321.75,-53.98"/>
</g>
<!-- serial&#45;&gt;gpu -->
<g id="edge7" class="edge">
<title>serial&#45;&gt;gpu</title>
<path fill="none" stroke="#3d8dff" stroke-width="2.3" d="M519.06,-51C519.06,-51 563.29,-51 563.29,-51"/>
<polygon fill="#3d8dff" stroke="#3d8dff" stroke-width="2.3" points="563.29,-53.98 571.79,-51 563.29,-48.03 563.29,-53.98"/>
</g>
</g>
</svg>
